<svg id="Layer_1" data-name="Layer 1" xmlns="http://www.w3.org/2000/svg" viewBox="0 0 300 300">
  <defs>
    <style>
      .cls-1 {
        fill: #676767;
      }

      .cls-2, .cls-7, .cls-9 {
        fill: none;
      }

      .cls-2 {
        stroke: #333;
      }

      .cls-2, .cls-7 {
        stroke-miterlimit: 10;
      }

      .cls-3, .cls-4, .cls-5, .cls-6 {
        fill: #333;
      }

      .cls-4 {
        font-size: 25px;
        letter-spacing: 0.02em;
      }

      .cls-4, .cls-5, .cls-6 {
        font-family: GothamRounded-Book, Gotham Rounded;
      }

      .cls-5 {
        font-size: 17.36px;
        letter-spacing: 0.02em;
      }

      .cls-6 {
        font-size: 12.41px;
        letter-spacing: 0.02em;
      }

      .cls-7, .cls-9 {
        stroke: #97c21e;
        stroke-width: 4px;
      }

      .cls-8 {
        fill: #97c21e;
      }

      .cls-9 {
        stroke-linecap: round;
        stroke-linejoin: round;
      }
    </style>
  </defs>
  <title>Service-svg</title>
  <g>
    <circle class="cls-1" cx="224.23" cy="192.1" r="2.04"/>
    <circle class="cls-1" cx="185.56" cy="221.43" r="2.04"/>
    <circle class="cls-1" cx="68.98" cy="212.18" r="2.04"/>
    <circle class="cls-1" cx="73.06" cy="114.76" r="2.04"/>
    <circle class="cls-1" cx="114.23" cy="73.43" r="2.04"/>
    <circle class="cls-1" cx="192.23" cy="70.26" r="2.04"/>
    <circle class="cls-1" cx="239.73" cy="104.52" r="2.04"/>
    <circle class="cls-2" cx="250.06" cy="178.41" r="4.42"/>
    <circle class="cls-2" cx="56.04" cy="153.91" r="4.5"/>
    <circle class="cls-3" cx="114.23" cy="234.35" r="2.04"/>
    <text class="cls-4" transform="translate(211.34 225.36)">+</text>
    <text class="cls-4" transform="translate(205.09 109.61)">+</text>
    <text class="cls-5" transform="translate(147.73 239.61) scale(1.22 0.93)">x</text>
    <text class="cls-5" transform="translate(148.73 69.93) scale(1.22 0.93)">x</text>
    <text class="cls-6" transform="translate(92.27 219.74) scale(1.22 0.93)">x</text>
    <text class="cls-6" transform="translate(45.52 117.74) scale(1.22 0.93)">x</text>
    <g>
      <rect class="cls-7" x="124.77" y="88.6" width="67.87" height="119.41" rx="6.24" ry="6.24" transform="translate(-37.68 55.48) rotate(-17.76)"/>
      <circle class="cls-8" cx="132.9" cy="103.12" r="1.96" transform="translate(-1.96 203.67) rotate(-74.52)"/>
      <line class="cls-9" x1="138.73" y1="101.26" x2="147.28" y2="98.52"/>
      <line class="cls-9" x1="167.67" y1="199.29" x2="180.68" y2="195.12"/>
    </g>
    <g>
      <path class="cls-8" d="M101.38,184.61l-.41-1.74c.69-.16,1.37-.36,2.07-.48.53-.09.77-.26.83-.87a2.88,2.88,0,0,1,2.07-2.54,3,3,0,0,1,3.29.76,3,3,0,0,1,.75,3.2,3.15,3.15,0,0,1-5.22,1.27.74.74,0,0,0-.83-.22C103.11,184.21,102.27,184.39,101.38,184.61Z"/>
      <path class="cls-8" d="M85.43,186.55l2.8-.66.41,1.75c-.88.21-1.74.43-2.61.61a.66.66,0,0,0-.56.51,3.13,3.13,0,0,1-3.53,2.16,3.18,3.18,0,0,1-.58-6.1A3.16,3.16,0,0,1,85.11,186C85.22,186.18,85.31,186.35,85.43,186.55Z"/>
      <path class="cls-8" d="M95.64,192.58l1.74-.41c.13.55.28,1.09.38,1.63a.63.63,0,0,0,.6.58,3.16,3.16,0,1,1-2.59.61.63.63,0,0,0,.27-.79C95.88,193.69,95.78,193.16,95.64,192.58Z"/>
      <path class="cls-8" d="M94,177.89l-1.74.41c-.13-.54-.28-1.05-.37-1.58a.66.66,0,0,0-.63-.62,3.16,3.16,0,0,1-.11-6.15,3.16,3.16,0,0,1,2.72,5.55.63.63,0,0,0-.26.79C93.75,176.81,93.86,177.34,94,177.89Z"/>
      <path class="cls-8" d="M87.17,174.27l.68,1.47a12,12,0,0,0-4.59,7.2H81.64A13.48,13.48,0,0,1,87.17,174.27Z"/>
      <path class="cls-8" d="M96.77,173.63,96.71,172a13.53,13.53,0,0,1,8.86,5.28c-.28.13-.52.22-.75.34s-.46.25-.71.4A12,12,0,0,0,96.77,173.63Z"/>
      <path class="cls-8" d="M92.92,198.49l0-1.62a12,12,0,0,1-7.33-4.37l-1.46.73A13.48,13.48,0,0,0,92.92,198.49Z"/>
      <path class="cls-8" d="M101.78,194.75l.68,1.48a13.53,13.53,0,0,0,5.55-8.7c-.31,0-.56,0-.82,0s-.52,0-.81,0A12,12,0,0,1,101.78,194.75Z"/>
      <path class="cls-8" d="M99.43,179.4l-.26,0a11.5,11.5,0,0,1-5.56-.14.55.55,0,0,0-.44.14,9.66,9.66,0,0,1-3,1.93c-.71.29-1.43.53-2.17.8,0,.09,0,.15.08.21a26,26,0,0,0,3.37,5.73,8.64,8.64,0,0,0,3.6,2.95c.93.36,1.4.36,2-.31a7.2,7.2,0,0,0,1.88-3.46,29.45,29.45,0,0,0,.6-3.72c.12-1.37.09-2.75.12-4.08C99.5,179.42,99.46,179.4,99.43,179.4Zm-2,7.21c.09.37.1.71-.38.83s-.67-.17-.76-.57c-.14-.59-.28-1.18-.42-1.79l-2.16.51.43,1.8c.09.37.1.71-.37.83s-.66-.17-.75-.58q-.53-2.25-1.07-4.5c-.1-.42-.05-.74.43-.85s.62.21.7.58.23,1,.36,1.5l2.16-.51c-.12-.51-.23-1-.36-1.52s-.05-.71.39-.83.65.15.74.53Q96.94,184.33,97.48,186.61Z"/>
    </g>
    <g>
      <path class="cls-8" d="M98.19,84.4c-.26.23-.51.43-.74.65a3.6,3.6,0,0,0-1.12,2,4,4,0,0,0,.93,3.55,4.35,4.35,0,0,0,1.18.9c.23.12.23.13.14.37a10.76,10.76,0,0,1-2.26,3.73,2.5,2.5,0,0,1-1.08.73,2.31,2.31,0,0,1-1.5,0c-.36-.12-.7-.28-1.06-.41a3.45,3.45,0,0,0-2.49.12c-.31.13-.63.25-1,.35A2,2,0,0,1,87.36,96a7.36,7.36,0,0,1-1.44-1.65A11.42,11.42,0,0,1,84,89.46a7.33,7.33,0,0,1,.23-3.55,4.6,4.6,0,0,1,2.87-3,3.72,3.72,0,0,1,2.72,0l1,.38a1.6,1.6,0,0,0,1.19,0c.49-.19,1-.36,1.47-.53a4.37,4.37,0,0,1,4.2,1C97.85,84,98,84.2,98.19,84.4Z"/>
      <path class="cls-8" d="M94.89,78.21a3.32,3.32,0,0,1-.13,1.38A4,4,0,0,1,92.83,82a2.94,2.94,0,0,1-1.4.38c-.14,0-.19,0-.2-.19a3.69,3.69,0,0,1,.83-2.44,4,4,0,0,1,2.76-1.59Z"/>
    </g>
    <g>
      <path class="cls-8" d="M239.48,145.34a1.33,1.33,0,0,1-.39.68,1.08,1.08,0,0,1-1.13.2,1.06,1.06,0,0,1-.7-.89,1.75,1.75,0,0,1,0-.26q0-2.38,0-4.75a1.12,1.12,0,0,1,1.46-1.13,1.18,1.18,0,0,1,.79.87Z"/>
      <path class="cls-8" d="M223.57,140a1.35,1.35,0,0,1,.46-.7,1.08,1.08,0,0,1,1.11-.13,1.05,1.05,0,0,1,.67.89,1.7,1.7,0,0,1,0,.2q0,2.4,0,4.79a1.12,1.12,0,0,1-2.2.36l0-.13Z"/>
      <path class="cls-8" d="M228.46,148.09h-1.31a.76.76,0,0,1-.85-.83q0-3.86,0-7.72c0-.05,0-.1,0-.17h10.44v.22c0,2.53,0,5.06,0,7.6a.83.83,0,0,1-.92.91c-.4,0-.81,0-1.25,0,0,.09,0,.16,0,.24,0,.83,0,1.66,0,2.49a1.11,1.11,0,0,1-2.06.57,1.36,1.36,0,0,1-.17-.62c0-.81,0-1.62,0-2.43,0-.07,0-.14,0-.23h-1.64c0,.07,0,.15,0,.22,0,.82,0,1.63,0,2.45a1.12,1.12,0,1,1-2.24,0c0-.82,0-1.63,0-2.45C228.46,148.27,228.46,148.2,228.46,148.09Z"/>
      <path class="cls-8" d="M226.25,138.84a5.43,5.43,0,0,1,2.7-4.06l-.49-1-.24-.46c-.06-.12-.15-.25,0-.34s.23.06.29.17l.73,1.43a5.49,5.49,0,0,1,2.23-.5,5.41,5.41,0,0,1,2.25.48l.81-1.4c0-.06.06-.13.11-.16a.25.25,0,0,1,.21,0,.25.25,0,0,1,.08.2c0,.06-.05.12-.08.18l-.8,1.38a5.43,5.43,0,0,1,2.75,4.09Zm3.33-2.28a.44.44,0,1,0-.45.43A.43.43,0,0,0,229.58,136.56Zm4.77,0a.44.44,0,0,0-.44-.43.45.45,0,0,0-.43.43.44.44,0,0,0,.44.44A.43.43,0,0,0,234.36,136.55Z"/>
    </g>
  </g>
</svg>
